ply
format ascii 1.0
comment Created by Blender 2.79 (sub 0) - www.blender.org, source file: 'FireElemental.blend'
element vertex 159
property float x
property float y
property float z
property float nx
property float ny
property float nz
property float s
property float t
element face 166
property list uchar uint vertex_indices
end_header
0.058953 -0.309474 4.571585 0.000610 -0.759941 0.649953 0.072051 0.944005
0.054550 -0.391075 4.425512 -0.011322 -0.969848 0.243355 0.034109 0.893771
0.166386 -0.352977 4.403347 0.478164 -0.861782 0.169225 0.066187 0.873190
0.195839 -0.278409 4.549844 0.524186 -0.665181 0.531693 0.099801 0.912627
0.198469 -0.263155 4.127810 0.494247 -0.646474 0.581164 0.068650 0.788966
0.250832 -0.252178 4.059855 0.671499 -0.664571 -0.327647 0.080701 0.764465
0.253312 -0.226196 4.151258 0.014832 -0.958708 0.283914 0.088709 0.794165
0.121037 -0.342358 4.089390 0.480728 -0.863277 -0.153661 0.039205 0.771364
0.144150 -0.300382 4.153519 0.717551 -0.573656 0.395001 0.049171 0.792666
0.123651 -0.318834 4.206810 0.692373 -0.643635 -0.326029 0.043229 0.810765
0.080316 -0.336488 4.218012 0.465224 -0.860561 -0.207282 0.028817 0.814762
0.385611 0.171947 4.253790 0.675893 0.694906 -0.245399 0.220061 0.802096
0.341690 0.217952 4.419753 0.738395 0.655141 0.159673 0.230773 0.843667
0.472995 0.053471 4.353238 0.997162 0.034852 0.066530 0.191471 0.826269
0.457886 0.051224 4.209486 0.951720 0.017426 -0.306406 0.187418 0.791295
0.063622 -0.164568 4.678989 0.012574 -0.385693 0.922513 0.133481 0.975173
0.199894 -0.133473 4.643304 0.460646 -0.370952 0.806330 0.147978 0.933728
0.200301 0.021462 4.668700 0.391064 0.054537 0.918729 0.196529 0.934683
0.067366 0.024217 4.705937 0.021363 0.041047 0.998901 0.205186 0.975617
0.059938 0.251661 4.162024 -0.003998 0.672018 -0.740501 0.306527 0.764565
0.064931 0.359729 4.315071 0.010285 0.958983 -0.283212 0.318080 0.818388
0.228027 0.310515 4.285846 0.404767 0.861476 -0.306558 0.263783 0.810196
0.204208 0.195780 4.151953 0.203192 0.669301 -0.714621 0.253802 0.764915
0.320091 -0.173610 4.438096 0.831202 -0.514237 0.211280 0.128334 0.867683
0.339155 -0.125901 4.389663 0.867367 -0.497543 -0.010010 0.139597 0.839666
0.433625 0.003144 4.484935 0.940642 -0.140172 0.309061 0.180429 0.855049
0.386691 -0.018275 4.547059 0.788965 -0.201636 0.580340 0.172483 0.883437
0.384280 -0.066659 4.276845 0.829890 -0.557695 -0.015809 0.153812 0.810021
0.281421 -0.292904 4.296978 0.712333 -0.649037 -0.267006 0.087270 0.831887
0.262414 -0.230767 4.226111 0.078402 -0.984466 -0.156987 0.101606 0.808907
0.360318 0.092998 4.083079 0.608203 0.460524 -0.646504 0.196425 0.756715
0.353478 0.155652 4.529615 0.730674 0.431532 0.529038 0.216519 0.869168
0.223180 0.316257 4.482856 0.470870 0.828333 0.303446 0.271716 0.863855
0.315250 0.165670 4.556510 0.610523 0.431318 0.664205 0.221961 0.881613
0.200375 0.184555 4.630593 0.416761 0.427931 0.801965 0.238918 0.915648
0.069783 0.226430 4.657877 0.026490 0.528153 0.848720 0.269783 0.944974
0.308279 -0.047119 4.609790 0.636830 -0.202795 0.743828 0.175904 0.896760
0.265247 -0.229142 4.464645 0.702841 -0.621632 0.345714 0.116569 0.881999
0.068930 0.355425 4.511619 0.023438 0.925596 0.377697 0.314363 0.885139
0.216367 -0.297552 4.278830 0.626240 -0.558916 -0.543504 0.072653 0.835469
0.358552 -0.078976 4.152550 0.930754 -0.209662 -0.299448 0.146472 0.780870
0.132643 -0.275883 3.983692 0.549547 -0.750023 -0.367992 0.055745 0.733471
0.047032 -0.299779 3.988171 -0.024781 -0.874264 -0.484787 0.027145 0.731455
0.045740 -0.260282 3.893651 -0.022248 -0.954680 -0.296701 0.033396 0.702514
0.127928 -0.233668 3.880118 0.503189 -0.843349 -0.188421 0.061040 0.702668
0.343157 0.038669 3.989784 0.779382 0.527238 -0.338420 0.169231 0.736765
0.312900 -0.061501 4.029003 0.904691 -0.333354 -0.265206 0.139794 0.746789
0.051534 -0.395377 4.283398 -0.021546 -0.966918 -0.254067 0.018379 0.845251
0.096547 -0.373830 4.275918 0.366894 -0.883114 -0.292337 0.032841 0.839054
0.173775 -0.336748 4.243880 0.577410 -0.600879 -0.552721 0.058170 0.825589
0.216177 -0.303465 4.044105 0.535478 -0.750999 -0.386273 0.070931 0.762785
0.174710 -0.222862 3.992344 0.660237 -0.567370 -0.492080 0.076925 0.733392
0.199822 -0.160767 3.895799 0.738365 -0.670522 -0.071993 0.092320 0.712916
0.318664 -0.216107 4.074258 0.706381 -0.600116 -0.375286 0.102608 0.770652
0.088754 -0.212839 3.700747 0.446394 -0.435347 -0.781762 0.046281 0.662101
0.050918 -0.353329 4.219416 -0.020417 -0.982330 -0.185949 0.018564 0.816640
0.048610 -0.391073 4.138741 -0.014985 -0.996124 0.086642 0.011611 0.786760
0.238102 -0.155193 4.011983 0.661428 -0.527146 -0.533464 0.107380 0.736407
0.047485 -0.356070 4.055888 -0.024873 -0.868892 -0.494339 0.017480 0.757907
0.242400 -0.125888 3.735927 0.497147 -0.021546 -0.867367 0.090979 0.683022
0.228876 -0.157201 3.720538 0.462111 -0.282083 -0.840754 0.081916 0.675508
0.303456 -0.045160 3.804229 0.635823 -0.072848 -0.768364 0.125979 0.692018
0.314512 0.045611 3.819604 0.419233 0.609302 -0.673025 0.159785 0.701545
0.321161 -0.061345 3.894638 0.892788 -0.439772 -0.097324 0.130419 0.719888
0.050649 0.003212 3.915961 0.005707 0.892697 -0.450606 0.835938 0.969193
0.054065 0.043049 4.048429 0.003571 0.852809 -0.522172 0.886478 0.969022
0.343157 0.038669 3.989784 0.779382 0.527238 -0.338420 0.891785 0.884795
0.314512 0.045611 3.819604 0.419233 0.609302 -0.673025 0.844712 0.883217
0.262414 -0.230767 4.226111 0.078402 -0.984466 -0.156987 0.786469 0.378116
0.281421 -0.292904 4.296978 0.712333 -0.649037 -0.267006 0.777244 0.427824
0.147766 -0.112170 4.221771 0.369823 -0.920988 -0.122471 0.734267 0.372851
0.253312 -0.226196 4.151258 0.014832 -0.958708 0.283914 0.765836 0.337577
0.144150 -0.300382 4.153519 0.717551 -0.573656 0.395001 0.687614 0.341509
0.198469 -0.263155 4.127810 0.494247 -0.646474 0.581164 0.726529 0.322167
0.123651 -0.318834 4.206810 0.692373 -0.643635 -0.326029 0.675718 0.380150
0.347828 -0.168004 4.137434 0.917264 -0.394024 -0.057497 0.118644 0.780850
0.216367 -0.297552 4.278830 0.626240 -0.558916 -0.543504 0.733196 0.431148
0.173775 -0.336748 4.243880 0.577410 -0.600879 -0.552721 0.690524 0.421142
0.059938 0.251661 4.162024 -0.003998 0.672018 -0.740501 0.976989 0.979161
0.204208 0.195780 4.151953 0.203192 0.669301 -0.714621 0.963202 0.915302
0.360318 0.092998 4.083079 0.608203 0.460524 -0.646504 0.920890 0.871735
0.088754 -0.212839 3.700747 0.446394 -0.435347 -0.781762 0.715300 0.957902
0.041790 -0.215776 3.666694 -0.023499 -0.189062 -0.981658 0.712682 0.978370
0.151805 -0.207111 3.720314 0.359355 -0.438581 -0.823695 0.719259 0.926956
0.228876 -0.157201 3.720538 0.462111 -0.282083 -0.840754 0.746503 0.925986
0.242400 -0.125888 3.735927 0.497147 -0.021546 -0.867367 0.764331 0.925351
0.303456 -0.045160 3.804229 0.635823 -0.072848 -0.768364 0.806218 0.907618
0.041790 -0.215776 3.666694 -0.023499 -0.189062 -0.981658 0.031872 0.660827
0.151805 -0.207111 3.720314 0.359355 -0.438581 -0.823695 0.068067 0.664027
-0.077591 -0.273795 4.555507 -0.523850 -0.647511 0.553392 0.099801 0.912627
-0.056760 -0.349211 4.407969 -0.499527 -0.845302 0.189489 0.066187 0.873190
-0.097174 -0.258166 4.133934 -0.491287 -0.629841 0.601581 0.068650 0.788966
-0.149722 -0.219395 4.159606 -0.035371 -0.957854 0.284951 0.088709 0.794165
-0.151905 -0.245383 4.068198 -0.706534 -0.641346 -0.299112 0.080701 0.764465
-0.024114 -0.339908 4.092396 -0.515519 -0.846461 -0.133030 0.039205 0.771364
0.022071 -0.335505 4.219218 -0.502152 -0.844234 -0.187231 0.028817 0.814762
-0.021070 -0.316392 4.209807 -0.726585 -0.619709 -0.296640 0.043229 0.810765
-0.043124 -0.297222 4.157398 -0.719504 -0.549394 0.424757 0.049171 0.792666
-0.264161 0.182911 4.267249 -0.661641 0.717490 -0.217689 0.220061 0.802096
-0.342237 0.064725 4.226059 -0.962462 0.049715 -0.266762 0.187418 0.791295
-0.351298 0.067380 4.370311 -0.991821 0.068422 0.107730 0.191471 0.826269
-0.211880 0.227292 4.431219 -0.708640 0.679556 0.189673 0.230773 0.843667
-0.067013 0.025973 4.674237 -0.350627 0.067049 0.934080 0.196529 0.934683
-0.072884 -0.128870 4.648955 -0.439100 -0.355754 0.824976 0.147978 0.933728
-0.086429 0.200684 4.157973 -0.209906 0.676290 -0.706046 0.253802 0.764915
-0.100801 0.316064 4.292657 -0.387829 0.874844 -0.290170 0.263783 0.810196
-0.202758 -0.164788 4.448925 -0.838588 -0.486038 0.245888 0.128334 0.867683
-0.259514 -0.007372 4.560443 -0.770623 -0.175329 0.612659 0.172483 0.883437
-0.308230 0.015662 4.500301 -0.931242 -0.108585 0.347819 0.180429 0.855049
-0.222190 -0.116429 4.401290 -0.883328 -0.468001 0.026215 0.139597 0.839666
-0.269924 -0.055620 4.290395 -0.848140 -0.529374 0.018921 0.153812 0.810021
-0.155866 -0.223709 4.234775 -0.117985 -0.981140 -0.152928 0.101606 0.808907
-0.174008 -0.285219 4.306412 -0.744255 -0.624470 -0.236854 0.087270 0.831887
-0.248633 0.103273 4.095692 -0.618549 0.481246 -0.621082 0.196425 0.756715
-0.221204 0.165349 4.541519 -0.693167 0.455550 0.558519 0.216519 0.869168
-0.181580 0.174053 4.566801 -0.567583 0.451216 0.688620 0.221961 0.881613
-0.087612 0.321501 4.489294 -0.429701 0.843532 0.322092 0.271716 0.863855
-0.063165 0.189002 4.636051 -0.368542 0.441176 0.818232 0.238918 0.915648
-0.179589 -0.038887 4.619895 -0.611988 -0.181738 0.769677 0.175904 0.896760
-0.148765 -0.222156 4.473221 -0.708487 -0.597827 0.374950 0.116569 0.881999
-0.109955 -0.292046 4.285589 -0.666677 -0.537095 -0.516739 0.072653 0.835469
-0.249794 -0.068711 4.165151 -0.948912 -0.177953 -0.260537 0.146472 0.780870
-0.037837 -0.273007 3.987223 -0.589282 -0.730796 -0.344401 0.055745 0.733471
-0.035993 -0.230902 3.883513 -0.538713 -0.825770 -0.166845 0.061040 0.702668
-0.237190 0.048462 4.001805 -0.774499 0.553453 -0.306253 0.169231 0.736765
-0.208732 -0.052699 4.039808 -0.925626 -0.302469 -0.227302 0.139794 0.746789
0.007002 -0.372319 4.277772 -0.408246 -0.870022 -0.276284 0.032841 0.839054
-0.070192 -0.332631 4.248933 -0.619709 -0.580676 -0.527909 0.058170 0.825589
-0.119681 -0.297798 4.051062 -0.576037 -0.732231 -0.363262 0.070931 0.762785
-0.077698 -0.218603 3.997572 -0.698813 -0.544420 -0.463912 0.076925 0.733392
-0.104676 -0.155629 3.902106 -0.762902 -0.645192 -0.040925 0.092320 0.712916
-0.217828 -0.207054 4.085371 -0.741142 -0.575701 -0.345286 0.102608 0.770652
-0.003597 -0.211281 3.702661 -0.492813 -0.419477 -0.762322 0.046281 0.662101
-0.137904 -0.148849 4.019772 -0.700339 -0.504166 -0.505264 0.107380 0.736407
-0.152635 -0.119222 3.744109 -0.533067 -0.004181 -0.846034 0.090979 0.683022
-0.140823 -0.150963 3.728196 -0.505753 -0.265725 -0.820704 0.081916 0.675508
-0.208054 -0.036529 3.814824 -0.669179 -0.050844 -0.741325 0.125979 0.692018
-0.222537 -0.052171 3.905899 -0.910398 -0.409345 -0.059969 0.130419 0.719888
-0.215397 0.054553 3.830580 -0.425947 0.623554 -0.655507 0.159785 0.701545
-0.215397 0.054553 3.830580 -0.425947 0.623554 -0.655507 0.844712 0.883217
-0.237190 0.048462 4.001805 -0.774499 0.553453 -0.306253 0.891785 0.884795
-0.155866 -0.223709 4.234775 -0.117985 -0.981140 -0.152928 0.786469 0.378116
-0.037562 -0.109043 4.225610 -0.405408 -0.907895 -0.106388 0.734267 0.372851
-0.174008 -0.285219 4.306412 -0.744255 -0.624470 -0.236854 0.777244 0.427824
-0.149722 -0.219395 4.159606 -0.035371 -0.957854 0.284951 0.765836 0.337577
-0.043124 -0.297222 4.157398 -0.719504 -0.549394 0.424757 0.687614 0.341509
-0.097174 -0.258166 4.133934 -0.491287 -0.629841 0.601581 0.726529 0.322167
-0.021070 -0.316392 4.209807 -0.726585 -0.619709 -0.296640 0.675718 0.380150
-0.242712 -0.158039 4.149666 -0.931639 -0.362835 -0.019196 0.118644 0.780850
-0.109955 -0.292046 4.285589 -0.666677 -0.537095 -0.516739 0.733196 0.431148
-0.070192 -0.332631 4.248933 -0.619709 -0.580676 -0.527909 0.690524 0.421142
-0.086429 0.200684 4.157973 -0.209906 0.676290 -0.706046 0.963202 0.915302
-0.248633 0.103273 4.095692 -0.618549 0.481246 -0.621082 0.920890 0.871735
-0.003597 -0.211281 3.702661 -0.492813 -0.419477 -0.762322 0.715300 0.957902
-0.065555 -0.203443 3.724816 -0.407727 -0.425642 -0.807794 0.719259 0.926956
-0.140823 -0.150963 3.728196 -0.505753 -0.265725 -0.820704 0.746503 0.925986
-0.152635 -0.119222 3.744109 -0.533067 -0.004181 -0.846034 0.764331 0.925351
-0.208054 -0.036529 3.814824 -0.669179 -0.050844 -0.741325 0.806218 0.907618
-0.065555 -0.203443 3.724816 -0.407727 -0.425642 -0.807794 0.068067 0.664027
4 0 1 2 3
3 4 5 6
4 7 8 9 10
4 11 12 13 14
4 15 16 17 18
4 19 20 21 22
4 23 24 25 26
4 25 24 27 13
4 28 29 24 23
4 22 21 11 30
4 16 15 0 3
4 31 12 32 33
4 17 34 35 18
4 31 33 36 26
4 16 3 37 36
4 12 31 25 13
4 34 32 38 35
4 2 39 28 37
4 27 40 14 13
4 41 42 43 44
4 45 30 40 46
4 21 32 12 11
4 20 38 32 21
4 36 37 23 26
4 17 36 33 34
4 47 48 2 1
4 49 39 2 48
4 7 50 4 8
4 51 41 44 52
3 6 53 29
3 54 44 43
4 55 10 48 47
4 7 10 55 56
3 53 5 57
4 7 58 42 41
4 59 52 44 60
4 61 62 45 63
4 59 61 63 52
3 57 46 53
4 63 46 57 52
4 64 65 66 67
3 49 48 9
3 68 69 70
3 71 68 70
3 26 25 31
3 72 73 70
3 70 74 72
3 27 75 40
3 69 76 70
3 74 70 77
3 3 2 37
3 52 57 51
3 40 30 14
3 14 30 11
3 36 17 16
3 32 34 33
3 10 9 48
3 76 77 70
3 73 71 70
3 37 28 23
3 56 58 7
3 7 51 50
3 63 45 46
3 7 41 51
3 29 27 24
3 78 79 65
3 80 66 65
3 79 80 65
4 81 82 64 83
4 84 83 64 85
3 67 86 64
3 86 85 64
3 27 29 75
3 4 50 5
3 5 50 51
3 5 53 6
3 5 51 57
3 46 40 75
3 46 75 53
3 53 75 29
3 43 87 54
3 54 88 44
3 44 88 60
4 0 89 90 1
3 91 92 93
4 94 95 96 97
4 98 99 100 101
4 15 18 102 103
4 19 104 105 20
4 106 107 108 109
4 108 100 110 109
4 109 111 112 106
4 104 113 98 105
4 103 89 0 15
4 114 115 116 101
4 102 18 35 117
4 114 107 118 115
4 103 118 119 89
4 101 100 108 114
4 117 35 38 116
4 90 119 112 120
4 110 100 99 121
4 122 123 43 42
4 124 125 121 113
4 105 98 101 116
4 20 105 116 38
4 118 107 106 119
4 102 117 115 118
4 47 1 90 126
4 127 126 90 120
4 94 97 91 128
4 129 130 123 122
3 92 111 131
3 132 43 123
4 55 47 126 95
4 94 56 55 95
3 131 133 93
4 94 122 42 58
4 123 130 134 135
4 136 137 124 138
4 134 130 137 136
3 133 131 125
4 137 130 133 125
4 64 139 140 65
3 127 96 126
3 141 142 143
3 144 142 141
3 107 114 108
3 145 142 146
3 142 145 147
3 110 121 148
3 143 142 149
3 147 150 142
3 89 119 90
3 130 129 133
3 121 99 113
3 99 98 113
3 118 103 102
3 116 115 117
3 95 126 96
3 149 142 150
3 146 142 144
3 119 106 112
3 56 94 58
3 94 128 129
3 137 125 124
3 94 129 122
3 111 109 110
3 78 65 151
3 152 65 140
3 151 65 152
4 64 82 153 154
4 64 154 155 156
3 139 64 157
3 157 64 156
3 110 148 111
3 91 93 128
3 93 129 128
3 93 92 131
3 93 133 129
3 125 148 121
3 125 131 148
3 131 111 148
3 43 132 87
3 132 123 158
3 123 135 158
