ply
format ascii 1.0
comment Created by Blender 2.79 (sub 0) - www.blender.org, source file: 'IceElemental.blend'
element vertex 159
property float x
property float y
property float z
property float nx
property float ny
property float nz
property float s
property float t
element face 166
property list uchar uint vertex_indices
end_header
0.058902 -0.311279 4.570602 0.003723 -0.679006 0.734092 0.072051 0.944005
0.052594 -0.460565 4.387674 -0.012055 -0.976959 0.213050 0.034109 0.893771
0.131433 -0.455299 4.349730 0.273721 -0.959685 -0.063631 0.066187 0.873190
0.264771 -0.285631 4.544020 0.498276 -0.553636 0.667196 0.099801 0.912627
0.198469 -0.263155 4.127810 0.496261 -0.643880 0.582324 0.068650 0.788966
0.250832 -0.252178 4.059855 0.671499 -0.664571 -0.327647 0.080701 0.764465
0.253312 -0.226196 4.151258 -0.017487 -0.963927 0.265481 0.088709 0.794165
0.121740 -0.343679 4.089429 0.505722 -0.846858 -0.164464 0.039205 0.771364
0.144150 -0.300382 4.153519 0.721702 -0.564409 0.400647 0.049171 0.792666
0.122913 -0.320793 4.205751 0.676015 -0.577868 -0.457198 0.043229 0.810765
0.079854 -0.337716 4.217348 0.441206 -0.831416 -0.337657 0.028817 0.814762
0.384849 0.171898 4.256221 0.754662 0.600604 -0.264046 0.220061 0.802096
0.341690 0.217952 4.419753 0.767693 0.637593 0.063631 0.230773 0.843667
0.459281 0.054020 4.361227 0.972442 0.214179 -0.091922 0.191471 0.826269
0.394446 0.059491 4.214096 0.964934 0.057649 -0.255989 0.187418 0.791295
0.063622 -0.164568 4.678989 0.011658 -0.421613 0.906674 0.133481 0.975173
0.200062 -0.130930 4.644479 0.448683 -0.363048 0.816614 0.147978 0.933728
0.210457 0.178806 4.741236 0.529618 -0.077486 0.844661 0.196529 0.934683
0.073273 0.261051 4.798199 0.020447 -0.014405 0.999664 0.205186 0.975617
0.059938 0.251661 4.162024 -0.003998 0.672018 -0.740501 0.306527 0.764565
0.064931 0.359729 4.315071 0.010285 0.958678 -0.284219 0.318080 0.818388
0.228027 0.310515 4.285846 0.405560 0.860683 -0.307718 0.263783 0.810196
0.204208 0.195780 4.151953 0.205725 0.669485 -0.713736 0.253802 0.764915
0.390897 -0.277676 4.380507 0.778130 -0.619556 0.103030 0.128334 0.867683
0.453438 -0.199905 4.342510 0.932340 -0.324839 -0.158605 0.139597 0.839666
0.425678 0.024570 4.490312 0.927915 0.077456 0.364574 0.180429 0.855049
0.374944 0.019310 4.561855 0.765770 -0.131413 0.629505 0.172483 0.883437
0.389417 -0.084074 4.272589 0.917020 -0.192602 -0.349193 0.153812 0.810021
0.280268 -0.328759 4.276042 0.465468 -0.636830 -0.614582 0.087270 0.831887
0.265248 -0.234697 4.223443 0.026124 -0.837397 -0.545946 0.101606 0.808907
0.360169 0.092956 4.083222 0.672262 0.387432 -0.630818 0.196425 0.756715
0.354171 0.166150 4.534463 0.844783 0.434370 0.312449 0.216519 0.869168
0.223229 0.317008 4.483203 0.580187 0.801386 -0.145299 0.271716 0.863855
0.318094 0.208733 4.576393 0.863247 0.417768 0.283273 0.221961 0.881613
0.226806 0.408117 4.711160 0.763909 0.548082 0.340617 0.238918 0.915648
0.077930 0.596411 4.749848 0.022248 0.954497 0.297342 0.269783 0.944974
0.312041 0.098052 4.658685 0.744011 -0.057833 0.665639 0.175904 0.896760
0.328849 -0.319116 4.414907 0.608234 -0.735191 0.299173 0.116569 0.881999
0.068930 0.355425 4.511619 0.009003 0.943114 -0.332255 0.314363 0.885139
0.201497 -0.337073 4.257467 0.485092 -0.451033 -0.749138 0.072653 0.835469
0.358861 -0.077904 4.152609 0.935209 -0.096713 -0.340587 0.146472 0.780870
0.132643 -0.275883 3.983692 0.530778 -0.796167 -0.290445 0.055745 0.733471
0.047032 -0.299779 3.988171 -0.024232 -0.898282 -0.438673 0.027145 0.731455
0.045495 -0.262702 3.883769 -0.020234 -0.984283 -0.175359 0.033396 0.702514
0.169532 -0.232124 3.822158 0.562029 -0.822810 -0.084140 0.061040 0.702668
0.281254 0.014563 4.003716 0.526963 0.635456 -0.564348 0.169231 0.736765
0.313031 -0.062283 4.029394 0.921049 -0.140873 -0.362987 0.139794 0.746789
0.051135 -0.409555 4.275678 -0.025758 -0.812037 -0.582995 0.018379 0.845251
0.088719 -0.395763 4.264058 0.135838 -0.752586 -0.644307 0.032841 0.839054
0.166193 -0.356877 4.233000 0.380963 -0.493912 -0.781579 0.058170 0.825589
0.216177 -0.303465 4.044105 0.539018 -0.748375 -0.386456 0.070931 0.762785
0.174710 -0.222862 3.992344 0.694082 -0.612903 -0.377575 0.076925 0.733392
0.238074 -0.155786 3.856205 0.838252 -0.533341 -0.113376 0.092320 0.712916
0.318664 -0.216107 4.074258 0.704703 -0.598071 -0.381634 0.102608 0.770652
0.122089 -0.239622 3.564104 0.691824 -0.199103 -0.694021 0.046281 0.662101
0.050904 -0.353811 4.219153 -0.022584 -0.947783 -0.318094 0.018564 0.816640
0.048432 -0.406429 4.142662 -0.014618 -0.994476 0.103793 0.011611 0.786760
0.238102 -0.155193 4.011983 0.703421 -0.524705 -0.479385 0.107380 0.736407
0.047471 -0.357223 4.056184 -0.025361 -0.841456 -0.539689 0.017480 0.757907
0.258812 -0.108348 3.764317 0.792169 0.268044 -0.548235 0.090979 0.683022
0.237971 -0.122161 3.735560 0.794214 0.185522 -0.578570 0.081916 0.675508
0.273215 -0.045228 3.912221 0.660634 0.552355 -0.508347 0.125979 0.692018
0.226692 -0.001911 3.941411 0.210517 0.816401 -0.537706 0.159785 0.701545
0.311900 -0.061739 3.944974 0.974181 -0.037843 -0.222480 0.130419 0.719888
0.050649 0.003212 3.915961 0.006470 0.905271 -0.424726 0.835938 0.969193
0.054065 0.043049 4.048429 0.000336 0.783380 -0.621509 0.886478 0.969022
0.281254 0.014563 4.003716 0.526963 0.635456 -0.564348 0.891785 0.884795
0.226692 -0.001911 3.941411 0.210517 0.816401 -0.537706 0.844712 0.883217
0.265248 -0.234697 4.223443 0.026124 -0.837397 -0.545946 0.786469 0.378116
0.280268 -0.328759 4.276042 0.465468 -0.636830 -0.614582 0.777244 0.427824
0.147766 -0.112170 4.221771 0.354991 -0.920164 -0.165105 0.734267 0.372851
0.253312 -0.226196 4.151258 -0.017487 -0.963927 0.265481 0.765836 0.337577
0.144150 -0.300382 4.153519 0.721702 -0.564409 0.400647 0.687614 0.341509
0.198469 -0.263155 4.127810 0.496261 -0.643880 0.582324 0.726529 0.322167
0.122913 -0.320793 4.205751 0.676015 -0.577868 -0.457198 0.675718 0.380150
0.347828 -0.168004 4.137434 0.915677 -0.390851 -0.093417 0.118644 0.780850
0.201497 -0.337073 4.257467 0.485092 -0.451033 -0.749138 0.733196 0.431148
0.166193 -0.356877 4.233000 0.380963 -0.493912 -0.781579 0.690524 0.421142
0.059938 0.251661 4.162024 -0.003998 0.672018 -0.740501 0.976989 0.979161
0.204208 0.195780 4.151953 0.205725 0.669485 -0.713736 0.963202 0.915302
0.360169 0.092956 4.083222 0.672262 0.387432 -0.630818 0.920890 0.871735
0.122089 -0.239622 3.564104 0.691824 -0.199103 -0.694021 0.715300 0.957902
0.036825 -0.272989 3.473562 -0.024598 -0.281014 -0.959380 0.712682 0.978370
0.196825 -0.171621 3.654185 0.786798 0.184912 -0.588824 0.719259 0.926956
0.237971 -0.122161 3.735560 0.794214 0.185522 -0.578570 0.746503 0.925986
0.258812 -0.108348 3.764317 0.792169 0.268044 -0.548235 0.764331 0.925351
0.273215 -0.045228 3.912221 0.660634 0.552355 -0.508347 0.806218 0.907618
0.036825 -0.272989 3.473562 -0.024598 -0.281014 -0.959380 0.031872 0.660827
0.196825 -0.171621 3.654185 0.786798 0.184912 -0.588824 0.068067 0.664027
-0.146909 -0.278684 4.552547 -0.488601 -0.536973 0.687643 0.099801 0.912627
-0.027527 -0.452617 4.353023 -0.308329 -0.949858 -0.051576 0.066187 0.873190
-0.097174 -0.258166 4.133934 -0.493149 -0.627186 0.602832 0.068650 0.788966
-0.149722 -0.219395 4.159606 -0.004028 -0.964171 0.265206 0.088709 0.794165
-0.151905 -0.245383 4.068198 -0.706534 -0.641346 -0.299112 0.080701 0.764465
-0.024859 -0.341205 4.092465 -0.540361 -0.829188 -0.142796 0.039205 0.771364
0.022464 -0.336747 4.218537 -0.482620 -0.815821 -0.318522 0.028817 0.814762
-0.020443 -0.318374 4.208721 -0.713462 -0.554430 -0.428419 0.043229 0.810765
-0.043124 -0.297222 4.157398 -0.723106 -0.540056 0.430586 0.049171 0.792666
-0.263300 0.182834 4.269646 -0.744255 0.625904 -0.233009 0.220061 0.802096
-0.278418 0.070845 4.228034 -0.972228 0.090335 -0.215857 0.187418 0.791295
-0.337255 0.067461 4.377726 -0.967650 0.246925 -0.051729 0.191471 0.826269
-0.211880 0.227292 4.431219 -0.742485 0.663076 0.094913 0.230773 0.843667
-0.068847 0.183519 4.747021 -0.496506 -0.060183 0.865932 0.196529 0.934683
-0.072917 -0.126323 4.650133 -0.426466 -0.348277 0.834742 0.147978 0.933728
-0.086429 0.200684 4.157973 -0.212409 0.676534 -0.705069 0.253802 0.764915
-0.100801 0.316064 4.292657 -0.388714 0.874081 -0.291269 0.263783 0.810196
-0.279356 -0.266366 4.394390 -0.793664 -0.593005 0.135594 0.128334 0.867683
-0.245903 0.029786 4.574714 -0.743034 -0.105960 0.660756 0.172483 0.883437
-0.299348 0.036804 4.505328 -0.908902 0.108463 0.402631 0.180429 0.855049
-0.340758 -0.186504 4.358962 -0.948546 -0.293100 -0.119633 0.139597 0.839666
-0.275817 -0.072850 4.286368 -0.936674 -0.161321 -0.310770 0.153812 0.810021
-0.158939 -0.227540 4.232229 -0.076937 -0.835658 -0.543809 0.101606 0.808907
-0.174932 -0.321078 4.285471 -0.511734 -0.620350 -0.594348 0.087270 0.831887
-0.248479 0.103226 4.095829 -0.684347 0.410321 -0.602710 0.196425 0.756715
-0.221342 0.175861 4.546383 -0.815973 0.462386 0.346873 0.216519 0.869168
-0.182144 0.217174 4.586755 -0.836207 0.446425 0.318491 0.221961 0.881613
-0.087622 0.322253 4.489642 -0.558336 0.820612 -0.121708 0.271716 0.863855
-0.078684 0.413272 4.717488 -0.730216 0.573290 0.371563 0.238918 0.915648
-0.176426 0.106296 4.668803 -0.717338 -0.033174 0.695914 0.175904 0.896760
-0.217370 -0.309899 4.426221 -0.619770 -0.714469 0.324625 0.116569 0.881999
-0.097323 -0.332031 4.263657 -0.530656 -0.433882 -0.728080 0.072653 0.835469
-0.250063 -0.067629 4.165222 -0.951231 -0.064882 -0.301523 0.146472 0.780870
-0.037837 -0.273007 3.987223 -0.568896 -0.777612 -0.267647 0.055745 0.733471
-0.079885 -0.227915 3.827324 -0.592456 -0.803339 -0.060213 0.061040 0.702668
-0.175612 0.022272 4.013179 -0.528123 0.653249 -0.542467 0.169231 0.736765
-0.208872 -0.053476 4.040204 -0.939512 -0.109470 -0.324473 0.139794 0.746789
0.013588 -0.394495 4.265615 -0.187689 -0.747124 -0.637593 0.032841 0.839054
-0.063749 -0.352997 4.237762 -0.429426 -0.480239 -0.764794 0.058170 0.825589
-0.119681 -0.297798 4.051062 -0.579485 -0.729514 -0.363262 0.070931 0.762785
-0.077698 -0.218603 3.997572 -0.729392 -0.588885 -0.348094 0.076925 0.733392
-0.144345 -0.149333 3.864125 -0.859737 -0.504685 -0.078219 0.092320 0.712916
-0.217828 -0.207054 4.085371 -0.739677 -0.573717 -0.351726 0.102608 0.770652
-0.043445 -0.236829 3.567533 -0.726279 -0.175176 -0.664663 0.046281 0.662101
-0.137904 -0.148849 4.019772 -0.739982 -0.500351 -0.449507 0.107380 0.736407
-0.167257 -0.101158 3.773143 -0.804712 0.294992 -0.515152 0.090979 0.683022
-0.148102 -0.115646 3.743557 -0.810785 0.212592 -0.545305 0.081916 0.675508
-0.173389 -0.037692 3.921472 -0.662099 0.574664 -0.480941 0.125979 0.692018
-0.211219 -0.052912 3.955810 -0.983276 -0.004822 -0.181921 0.130419 0.719888
-0.124262 0.004010 3.948680 -0.204932 0.823420 -0.529099 0.159785 0.701545
-0.124262 0.004010 3.948680 -0.204932 0.823420 -0.529099 0.844712 0.883217
-0.175612 0.022272 4.013179 -0.528123 0.653249 -0.542467 0.891785 0.884795
-0.158939 -0.227540 4.232229 -0.076937 -0.835658 -0.543809 0.786469 0.378116
-0.037562 -0.109043 4.225610 -0.392346 -0.907529 -0.149632 0.734267 0.372851
-0.174932 -0.321078 4.285471 -0.511734 -0.620350 -0.594348 0.777244 0.427824
-0.149722 -0.219395 4.159606 -0.004028 -0.964171 0.265206 0.765836 0.337577
-0.043124 -0.297222 4.157398 -0.723106 -0.540056 0.430586 0.687614 0.341509
-0.097174 -0.258166 4.133934 -0.493149 -0.627186 0.602832 0.726529 0.322167
-0.020443 -0.318374 4.208721 -0.713462 -0.554430 -0.428419 0.675718 0.380150
-0.242712 -0.158039 4.149666 -0.931425 -0.359691 -0.055147 0.118644 0.780850
-0.097323 -0.332031 4.263657 -0.530656 -0.433882 -0.728080 0.733196 0.431148
-0.063749 -0.352997 4.237762 -0.429426 -0.480239 -0.764794 0.690524 0.421142
-0.086429 0.200684 4.157973 -0.212409 0.676534 -0.705069 0.963202 0.915302
-0.248479 0.103226 4.095829 -0.684347 0.410321 -0.602710 0.920890 0.871735
-0.043445 -0.236829 3.567533 -0.726279 -0.175176 -0.664663 0.715300 0.957902
-0.112051 -0.166409 3.660582 -0.803797 0.211737 -0.555895 0.719259 0.926956
-0.148102 -0.115646 3.743557 -0.810785 0.212592 -0.545305 0.746503 0.925986
-0.167257 -0.101158 3.773143 -0.804712 0.294992 -0.515152 0.764331 0.925351
-0.173389 -0.037692 3.921472 -0.662099 0.574664 -0.480941 0.806218 0.907618
-0.112051 -0.166409 3.660582 -0.803797 0.211737 -0.555895 0.068067 0.664027
4 0 1 2 3
3 4 5 6
4 7 8 9 10
4 11 12 13 14
4 15 16 17 18
4 19 20 21 22
4 23 24 25 26
4 25 24 27 13
4 28 29 24 23
4 22 21 11 30
4 16 15 0 3
4 31 12 32 33
4 17 34 35 18
4 31 33 36 26
4 16 3 37 36
4 12 31 25 13
4 34 32 38 35
4 2 39 28 37
4 27 40 14 13
4 41 42 43 44
4 45 30 40 46
4 21 32 12 11
4 20 38 32 21
4 36 37 23 26
4 17 36 33 34
4 47 48 2 1
4 49 39 2 48
4 7 50 4 8
4 51 41 44 52
3 6 53 29
3 54 44 43
4 55 10 48 47
4 7 10 55 56
3 53 5 57
4 7 58 42 41
4 59 52 44 60
4 61 62 45 63
4 59 61 63 52
3 57 46 53
4 63 46 57 52
4 64 65 66 67
3 49 48 9
3 68 69 70
3 71 68 70
3 26 25 31
3 72 73 70
3 70 74 72
3 27 75 40
3 69 76 70
3 74 70 77
3 3 2 37
3 52 57 51
3 40 30 14
3 14 30 11
3 36 17 16
3 32 34 33
3 10 9 48
3 76 77 70
3 73 71 70
3 37 28 23
3 56 58 7
3 7 51 50
3 63 45 46
3 7 41 51
3 29 27 24
3 78 79 65
3 80 66 65
3 79 80 65
4 81 82 64 83
4 84 83 64 85
3 67 86 64
3 86 85 64
3 27 29 75
3 4 50 5
3 5 50 51
3 5 53 6
3 5 51 57
3 46 40 75
3 46 75 53
3 53 75 29
3 43 87 54
3 54 88 44
3 44 88 60
4 0 89 90 1
3 91 92 93
4 94 95 96 97
4 98 99 100 101
4 15 18 102 103
4 19 104 105 20
4 106 107 108 109
4 108 100 110 109
4 109 111 112 106
4 104 113 98 105
4 103 89 0 15
4 114 115 116 101
4 102 18 35 117
4 114 107 118 115
4 103 118 119 89
4 101 100 108 114
4 117 35 38 116
4 90 119 112 120
4 110 100 99 121
4 122 123 43 42
4 124 125 121 113
4 105 98 101 116
4 20 105 116 38
4 118 107 106 119
4 102 117 115 118
4 47 1 90 126
4 127 126 90 120
4 94 97 91 128
4 129 130 123 122
3 92 111 131
3 132 43 123
4 55 47 126 95
4 94 56 55 95
3 131 133 93
4 94 122 42 58
4 123 130 134 135
4 136 137 124 138
4 134 130 137 136
3 133 131 125
4 137 130 133 125
4 64 139 140 65
3 127 96 126
3 141 142 143
3 144 142 141
3 107 114 108
3 145 142 146
3 142 145 147
3 110 121 148
3 143 142 149
3 147 150 142
3 89 119 90
3 130 129 133
3 121 99 113
3 99 98 113
3 118 103 102
3 116 115 117
3 95 126 96
3 149 142 150
3 146 142 144
3 119 106 112
3 56 94 58
3 94 128 129
3 137 125 124
3 94 129 122
3 111 109 110
3 78 65 151
3 152 65 140
3 151 65 152
4 64 82 153 154
4 64 154 155 156
3 139 64 157
3 157 64 156
3 110 148 111
3 91 93 128
3 93 129 128
3 93 92 131
3 93 133 129
3 125 148 121
3 125 131 148
3 131 111 148
3 43 132 87
3 132 123 158
3 123 135 158
