ply
format ascii 1.0
comment Created by Blender 2.79 (sub 0) - www.blender.org, source file: 'LightElemental.blend'
element vertex 159
property float x
property float y
property float z
property float nx
property float ny
property float nz
property float s
property float t
element face 166
property list uchar uint vertex_indices
end_header
0.058876 -0.311888 4.569859 0.002380 -0.715537 0.698538 0.072051 0.944005
0.049282 -0.516318 4.273208 -0.020142 -0.985168 -0.170263 0.034109 0.893771
0.210362 -0.448297 4.252808 0.474624 -0.800287 -0.366344 0.066187 0.873190
0.332824 -0.317103 4.463455 0.624348 -0.593249 0.508133 0.099801 0.912627
0.198475 -0.263145 4.127777 0.491623 -0.646352 0.583514 0.068650 0.788966
0.250832 -0.252178 4.059855 0.671529 -0.664602 -0.327555 0.080701 0.764465
0.253638 -0.226084 4.150978 -0.026673 -0.973327 0.227821 0.088709 0.794165
0.121037 -0.342358 4.089389 0.481246 -0.863979 -0.147893 0.039205 0.771364
0.144123 -0.300195 4.152663 0.708945 -0.574053 0.409650 0.049171 0.792666
0.123407 -0.317638 4.201109 0.614032 -0.462142 -0.639790 0.043229 0.810765
0.080170 -0.335528 4.212950 0.364483 -0.688162 -0.627308 0.028817 0.814762
0.385611 0.171947 4.253790 0.638539 0.735618 -0.226020 0.220061 0.802096
0.341690 0.217952 4.419753 0.739280 0.645772 0.190741 0.230773 0.843667
0.474392 0.053405 4.354507 0.985412 0.049654 0.162633 0.191471 0.826269
0.495393 0.051246 4.206161 0.950774 0.014954 -0.309458 0.187418 0.791295
0.063629 -0.164662 4.679385 0.012543 -0.387555 0.921751 0.133481 0.975173
0.237210 -0.135510 4.629498 0.519791 -0.290170 0.803461 0.147978 0.933728
0.200264 0.021430 4.668601 0.430372 0.042024 0.901639 0.196529 0.934683
0.067366 0.024217 4.705937 0.021332 0.038606 0.999023 0.205186 0.975617
0.059938 0.251661 4.162024 -0.003998 0.672018 -0.740501 0.306527 0.764565
0.064931 0.359729 4.315071 0.010285 0.958983 -0.283212 0.318080 0.818388
0.228027 0.310515 4.285846 0.404767 0.861476 -0.306558 0.263783 0.810196
0.204208 0.195780 4.151953 0.203192 0.669301 -0.714621 0.253802 0.764915
0.434923 -0.192814 4.327956 0.966430 -0.018067 -0.256233 0.128334 0.867683
0.394325 -0.109408 4.367056 0.970824 -0.120731 -0.207007 0.139597 0.839666
0.408105 0.028733 4.457649 0.950316 0.074374 0.302255 0.180429 0.855049
0.384001 -0.002886 4.495005 0.873959 -0.042421 0.484085 0.172483 0.883437
0.391192 -0.066706 4.281865 0.835047 -0.549547 -0.026154 0.153812 0.810021
0.340201 -0.324925 4.267195 0.430860 -0.190069 -0.882138 0.087270 0.831887
0.255517 -0.237143 4.226748 -0.301492 -0.941984 -0.147343 0.101606 0.808907
0.360318 0.092998 4.083079 0.564837 0.469741 -0.678426 0.196425 0.756715
0.356071 0.148228 4.526374 0.780694 0.325571 0.533372 0.216519 0.869168
0.223180 0.316257 4.482856 0.474013 0.826289 0.304117 0.271716 0.863855
0.312613 0.165318 4.557260 0.663533 0.388287 0.639454 0.221961 0.881613
0.200375 0.184555 4.630593 0.433821 0.415723 0.799341 0.238918 0.915648
0.069783 0.226430 4.657877 0.026490 0.528062 0.848781 0.269783 0.944974
0.313163 -0.028965 4.579824 0.719382 -0.058931 0.692068 0.175904 0.896760
0.413289 -0.255676 4.328099 0.901334 -0.424024 -0.087985 0.116569 0.881999
0.068930 0.355425 4.511619 0.023438 0.925596 0.377697 0.314363 0.885139
0.240397 -0.333595 4.256754 0.383190 -0.199927 -0.901761 0.072653 0.835469
0.358552 -0.078976 4.152550 0.915708 -0.236518 -0.324809 0.146472 0.780870
0.132643 -0.275883 3.983692 0.524186 -0.795556 -0.303751 0.055745 0.733471
0.047032 -0.299779 3.988171 -0.024415 -0.890713 -0.453902 0.027145 0.731455
0.045718 -0.260101 3.892402 -0.021882 -0.961333 -0.274422 0.033396 0.702514
0.170482 -0.228069 3.835638 0.458541 -0.885769 -0.071627 0.061040 0.702668
0.343157 0.038669 3.989784 0.779382 0.527268 -0.338359 0.169231 0.736765
0.312900 -0.061501 4.029003 0.916654 -0.317545 -0.242622 0.139794 0.746789
0.049587 -0.436475 4.222913 -0.025513 -0.374584 -0.926817 0.018379 0.845251
0.094485 -0.408206 4.217227 0.089267 -0.272591 -0.957945 0.032841 0.839054
0.177022 -0.339908 4.213753 0.358135 -0.086337 -0.929655 0.058170 0.825589
0.216177 -0.303465 4.044105 0.535325 -0.751518 -0.385510 0.070931 0.762785
0.174710 -0.222862 3.992344 0.690481 -0.615345 -0.380200 0.076925 0.733392
0.237973 -0.155748 3.855922 0.786218 -0.611805 0.086673 0.092320 0.712916
0.318664 -0.216107 4.074258 0.706198 -0.599384 -0.376812 0.102608 0.770652
0.110432 -0.187323 3.591254 0.362438 -0.168554 -0.916623 0.046281 0.662101
0.050822 -0.352222 4.213884 -0.026612 -0.691153 -0.722190 0.018564 0.816640
0.048606 -0.391026 4.138525 -0.014679 -0.994720 0.101474 0.011611 0.786760
0.238102 -0.155193 4.011983 0.699454 -0.534532 -0.474319 0.107380 0.736407
0.047485 -0.356070 4.055888 -0.024903 -0.868801 -0.494491 0.017480 0.757907
0.280046 -0.134959 3.742111 0.795495 0.219031 -0.564928 0.090979 0.683022
0.269445 -0.171576 3.738930 0.900906 -0.385083 -0.200110 0.081916 0.675508
0.303546 -0.045148 3.804134 0.627064 0.051912 -0.777184 0.125979 0.692018
0.314512 0.045611 3.819604 0.419202 0.609546 -0.672811 0.159785 0.701545
0.321161 -0.061345 3.894638 0.925962 -0.374401 -0.048585 0.130419 0.719888
0.050649 0.003212 3.915961 0.007324 0.918912 -0.394360 0.835938 0.969193
0.054065 0.043049 4.048429 0.003571 0.852809 -0.522172 0.886478 0.969022
0.343157 0.038669 3.989784 0.779382 0.527268 -0.338359 0.891785 0.884795
0.314512 0.045611 3.819604 0.419202 0.609546 -0.672811 0.844712 0.883217
0.255517 -0.237143 4.226748 -0.301492 -0.941984 -0.147343 0.786469 0.378116
0.340201 -0.324925 4.267195 0.430860 -0.190069 -0.882138 0.777244 0.427824
0.147766 -0.112170 4.221771 0.363811 -0.911466 -0.191900 0.734267 0.372851
0.253638 -0.226084 4.150978 -0.026673 -0.973327 0.227821 0.765836 0.337577
0.144123 -0.300195 4.152663 0.708945 -0.574053 0.409650 0.687614 0.341509
0.198475 -0.263145 4.127777 0.491623 -0.646352 0.583514 0.726529 0.322167
0.123407 -0.317638 4.201109 0.614032 -0.462142 -0.639790 0.675718 0.380150
0.347977 -0.167920 4.137341 0.914243 -0.399091 -0.069552 0.118644 0.780850
0.240397 -0.333595 4.256754 0.383190 -0.199927 -0.901761 0.733196 0.431148
0.177022 -0.339908 4.213753 0.358135 -0.086337 -0.929655 0.690524 0.421142
0.059938 0.251661 4.162024 -0.003998 0.672018 -0.740501 0.976989 0.979161
0.204208 0.195780 4.151953 0.203192 0.669301 -0.714621 0.963202 0.915302
0.360318 0.092998 4.083079 0.564837 0.469741 -0.678426 0.920890 0.871735
0.110432 -0.187323 3.591254 0.362438 -0.168554 -0.916623 0.715300 0.957902
0.040444 -0.192004 3.582313 -0.023591 -0.195532 -0.980407 0.712682 0.978370
0.225142 -0.200279 3.645911 0.439253 -0.268746 -0.857204 0.719259 0.926956
0.269445 -0.171576 3.738930 0.900906 -0.385083 -0.200110 0.746503 0.925986
0.280046 -0.134959 3.742111 0.795495 0.219031 -0.564928 0.764331 0.925351
0.303546 -0.045148 3.804134 0.627064 0.051912 -0.777184 0.806218 0.907618
0.040444 -0.192004 3.582313 -0.023591 -0.195532 -0.980407 0.031872 0.660827
0.225142 -0.200279 3.645911 0.439253 -0.268746 -0.857204 0.068067 0.664027
-0.219261 -0.307787 4.474891 -0.622425 -0.572192 0.533952 0.099801 0.912627
-0.110120 -0.442890 4.259446 -0.516098 -0.783563 -0.345836 0.066187 0.873190
-0.097180 -0.258156 4.133901 -0.488571 -0.629810 0.603809 0.068650 0.788966
-0.150055 -0.219273 4.159339 0.003235 -0.973815 0.227210 0.088709 0.794165
-0.151905 -0.245383 4.068198 -0.706534 -0.641377 -0.299020 0.080701 0.764465
-0.024114 -0.339908 4.092396 -0.515824 -0.847163 -0.127232 0.039205 0.771364
0.022040 -0.334547 4.214154 -0.413129 -0.675039 -0.611225 0.028817 0.814762
-0.021022 -0.315201 4.204101 -0.655232 -0.440718 -0.613483 0.043229 0.810765
-0.043126 -0.297035 4.156541 -0.710318 -0.550127 0.439039 0.049171 0.792666
-0.264161 0.182911 4.267249 -0.622150 0.756890 -0.199927 0.220061 0.802096
-0.379829 0.066014 4.224289 -0.961730 0.047243 -0.269845 0.187418 0.791295
-0.352643 0.067360 4.371637 -0.975616 0.082736 0.203253 0.191471 0.826269
-0.211880 0.227292 4.431219 -0.708579 0.670186 0.220740 0.230773 0.843667
-0.066982 0.025939 4.674137 -0.391003 0.055910 0.918668 0.196529 0.934683
-0.110787 -0.129638 4.636706 -0.495590 -0.273049 0.824488 0.147978 0.933728
-0.086429 0.200684 4.157973 -0.209906 0.676290 -0.706046 0.253802 0.764915
-0.100801 0.316064 4.292657 -0.387829 0.874844 -0.290170 0.263783 0.810196
-0.322633 -0.180031 4.343647 -0.976257 0.014679 -0.216010 0.128334 0.867683
-0.258464 0.007955 4.508312 -0.854122 -0.013276 0.519883 0.172483 0.883437
-0.283013 0.040395 4.471964 -0.933927 0.106174 0.341288 0.180429 0.855049
-0.277663 -0.098069 4.380975 -0.982086 -0.087771 -0.166570 0.139597 0.839666
-0.276619 -0.055437 4.295698 -0.853450 -0.521043 0.008789 0.153812 0.810021
-0.149168 -0.230314 4.235131 0.263192 -0.951506 -0.159062 0.101606 0.808907
-0.235017 -0.315219 4.279110 -0.473190 -0.174810 -0.863399 0.087270 0.831887
-0.248633 0.103273 4.095692 -0.576281 0.488998 -0.654775 0.196425 0.756715
-0.224179 0.158019 4.538393 -0.746513 0.351360 0.564989 0.216519 0.869168
-0.178928 0.173612 4.567441 -0.623035 0.409986 0.666097 0.221961 0.881613
-0.087612 0.321501 4.489294 -0.432875 0.841609 0.322916 0.271716 0.863855
-0.063165 0.189002 4.636051 -0.386090 0.429548 0.816309 0.238918 0.915648
-0.185094 -0.020557 4.590144 -0.691702 -0.035127 0.721305 0.175904 0.896760
-0.303143 -0.243587 4.342938 -0.917997 -0.393323 -0.050295 0.116569 0.881999
-0.136080 -0.327242 4.264552 -0.426710 -0.186254 -0.884976 0.072653 0.835469
-0.249794 -0.068711 4.165151 -0.935820 -0.205298 -0.286447 0.146472 0.780870
-0.037837 -0.273007 3.987223 -0.562822 -0.777215 -0.281259 0.055745 0.733471
-0.080140 -0.223840 3.840828 -0.490707 -0.869747 -0.051943 0.061040 0.702668
-0.237190 0.048462 4.001805 -0.774499 0.553484 -0.306162 0.169231 0.736765
-0.208732 -0.052699 4.039808 -0.936094 -0.286264 -0.204260 0.139794 0.746789
0.005472 -0.406704 4.219071 -0.137974 -0.268777 -0.953246 0.032841 0.839054
-0.074788 -0.335659 4.218968 -0.399030 -0.073550 -0.913968 0.058170 0.825589
-0.119681 -0.297798 4.051062 -0.575854 -0.732780 -0.362468 0.070931 0.762785
-0.077698 -0.218603 3.997572 -0.725974 -0.591449 -0.350841 0.076925 0.733392
-0.144255 -0.149298 3.863838 -0.802118 -0.585009 0.119572 0.092320 0.712916
-0.217828 -0.207054 4.085371 -0.740989 -0.574969 -0.346812 0.102608 0.770652
-0.028917 -0.184972 3.594141 -0.405560 -0.155583 -0.900723 0.046281 0.662101
-0.137904 -0.148849 4.019772 -0.736106 -0.510330 -0.444594 0.107380 0.736407
-0.190278 -0.127023 3.751852 -0.810358 0.246132 -0.531663 0.090979 0.683022
-0.181058 -0.163975 3.748261 -0.920896 -0.354350 -0.162358 0.081916 0.675508
-0.208147 -0.036514 3.814733 -0.656606 0.073580 -0.750603 0.125979 0.692018
-0.222537 -0.052171 3.905899 -0.939299 -0.342906 -0.009949 0.130419 0.719888
-0.215397 0.054553 3.830580 -0.425886 0.623829 -0.655293 0.159785 0.701545
-0.215397 0.054553 3.830580 -0.425886 0.623829 -0.655293 0.844712 0.883217
-0.237190 0.048462 4.001805 -0.774499 0.553484 -0.306162 0.891785 0.884795
-0.149168 -0.230314 4.235131 0.263192 -0.951506 -0.159062 0.786469 0.378116
-0.037562 -0.109043 4.225610 -0.401990 -0.898556 -0.176031 0.734267 0.372851
-0.235017 -0.315219 4.279110 -0.473190 -0.174810 -0.863399 0.777244 0.427824
-0.150055 -0.219273 4.159339 0.003235 -0.973815 0.227210 0.765836 0.337577
-0.043126 -0.297035 4.156541 -0.710318 -0.550127 0.439039 0.687614 0.341509
-0.097180 -0.258156 4.133901 -0.488571 -0.629810 0.603809 0.726529 0.322167
-0.021022 -0.315201 4.204101 -0.655232 -0.440718 -0.613483 0.675718 0.380150
-0.242862 -0.157950 4.149579 -0.929289 -0.367992 -0.031343 0.118644 0.780850
-0.136080 -0.327242 4.264552 -0.426710 -0.186254 -0.884976 0.733196 0.431148
-0.074788 -0.335659 4.218968 -0.399030 -0.073550 -0.913968 0.690524 0.421142
-0.086429 0.200684 4.157973 -0.209906 0.676290 -0.706046 0.963202 0.915302
-0.248633 0.103273 4.095692 -0.576281 0.488998 -0.654775 0.920890 0.871735
-0.028917 -0.184972 3.594141 -0.405560 -0.155583 -0.900723 0.715300 0.957902
-0.141637 -0.194090 3.653508 -0.483200 -0.253151 -0.838099 0.719259 0.926956
-0.181058 -0.163975 3.748261 -0.920896 -0.354350 -0.162358 0.746503 0.925986
-0.190278 -0.127023 3.751852 -0.810358 0.246132 -0.531663 0.764331 0.925351
-0.208147 -0.036514 3.814733 -0.656606 0.073580 -0.750603 0.806218 0.907618
-0.141637 -0.194090 3.653508 -0.483200 -0.253151 -0.838099 0.068067 0.664027
4 0 1 2 3
3 4 5 6
4 7 8 9 10
4 11 12 13 14
4 15 16 17 18
4 19 20 21 22
4 23 24 25 26
4 25 24 27 13
4 28 29 24 23
4 22 21 11 30
4 16 15 0 3
4 31 12 32 33
4 17 34 35 18
4 31 33 36 26
4 16 3 37 36
4 12 31 25 13
4 34 32 38 35
4 2 39 28 37
4 27 40 14 13
4 41 42 43 44
4 45 30 40 46
4 21 32 12 11
4 20 38 32 21
4 36 37 23 26
4 17 36 33 34
4 47 48 2 1
4 49 39 2 48
4 7 50 4 8
4 51 41 44 52
3 6 53 29
3 54 44 43
4 55 10 48 47
4 7 10 55 56
3 53 5 57
4 7 58 42 41
4 59 52 44 60
4 61 62 45 63
4 59 61 63 52
3 57 46 53
4 63 46 57 52
4 64 65 66 67
3 49 48 9
3 68 69 70
3 71 68 70
3 26 25 31
3 72 73 70
3 70 74 72
3 27 75 40
3 69 76 70
3 74 70 77
3 3 2 37
3 52 57 51
3 40 30 14
3 14 30 11
3 36 17 16
3 32 34 33
3 10 9 48
3 76 77 70
3 73 71 70
3 37 28 23
3 56 58 7
3 7 51 50
3 63 45 46
3 7 41 51
3 29 27 24
3 78 79 65
3 80 66 65
3 79 80 65
4 81 82 64 83
4 84 83 64 85
3 67 86 64
3 86 85 64
3 27 29 75
3 4 50 5
3 5 50 51
3 5 53 6
3 5 51 57
3 46 40 75
3 46 75 53
3 53 75 29
3 43 87 54
3 54 88 44
3 44 88 60
4 0 89 90 1
3 91 92 93
4 94 95 96 97
4 98 99 100 101
4 15 18 102 103
4 19 104 105 20
4 106 107 108 109
4 108 100 110 109
4 109 111 112 106
4 104 113 98 105
4 103 89 0 15
4 114 115 116 101
4 102 18 35 117
4 114 107 118 115
4 103 118 119 89
4 101 100 108 114
4 117 35 38 116
4 90 119 112 120
4 110 100 99 121
4 122 123 43 42
4 124 125 121 113
4 105 98 101 116
4 20 105 116 38
4 118 107 106 119
4 102 117 115 118
4 47 1 90 126
4 127 126 90 120
4 94 97 91 128
4 129 130 123 122
3 92 111 131
3 132 43 123
4 55 47 126 95
4 94 56 55 95
3 131 133 93
4 94 122 42 58
4 123 130 134 135
4 136 137 124 138
4 134 130 137 136
3 133 131 125
4 137 130 133 125
4 64 139 140 65
3 127 96 126
3 141 142 143
3 144 142 141
3 107 114 108
3 145 142 146
3 142 145 147
3 110 121 148
3 143 142 149
3 147 150 142
3 89 119 90
3 130 129 133
3 121 99 113
3 99 98 113
3 118 103 102
3 116 115 117
3 95 126 96
3 149 142 150
3 146 142 144
3 119 106 112
3 56 94 58
3 94 128 129
3 137 125 124
3 94 129 122
3 111 109 110
3 78 65 151
3 152 65 140
3 151 65 152
4 64 82 153 154
4 64 154 155 156
3 139 64 157
3 157 64 156
3 110 148 111
3 91 93 128
3 93 129 128
3 93 92 131
3 93 133 129
3 125 148 121
3 125 131 148
3 131 111 148
3 43 132 87
3 132 123 158
3 123 135 158
